<?xml version="1.0" encoding="utf-8"?>
<!-- Generator: Adobe Illustrator 23.0.1, SVG Export Plug-In . SVG Version: 6.00 Build 0)  -->
<svg version="1.1" id="Camada_1" xmlns="http://www.w3.org/2000/svg" xmlns:xlink="http://www.w3.org/1999/xlink" x="0px" y="0px"
	 viewBox="0 0 224.3 79.64" style="enable-background:new 0 0 224.3 79.64;" xml:space="preserve">
<style type="text/css">
	.st0{fill:#FFFFFF;}
	.st1{clip-path:url(#SVGID_2_);fill:#FFFFFF;}
</style>
<g>
	<g>
		<path class="st0" d="M30.45,34.24c-1.46,0-2.27-0.89-2.27-2.92V9.52c0-0.81-0.49-1.22-1.54-1.22c-1.42,0-2.68,0.16-3.86,0.49
			v22.33c0,4.22,1.62,7.39,6.01,7.39c2.96,0,4.67-1.22,4.67-2.52c0-0.73-0.28-1.66-0.65-2.19C32.16,34.08,31.26,34.24,30.45,34.24z"
			/>
		<path class="st0" d="M45.39,16.05c-6.09,0-11.04,4.34-11.04,11.41c0,6.5,4.55,11.24,11,11.24c4.3,0,7.02-1.91,7.02-3.21
			c0-0.69-0.37-1.7-0.73-2.23c-1.54,0.81-3.29,1.18-5.2,1.18c-3.49,0-6.05-1.7-6.58-5.11h10.47c1.75,0,2.64-0.45,3.29-1.71
			c0.49-0.93,0.77-2.23,0.77-3.53C54.41,19.5,50.88,16.05,45.39,16.05z M48.89,25.51h-9.01c0.41-3.25,2.43-5.2,5.4-5.2
			c2.48,0,3.9,1.46,3.9,3.77C49.17,24.62,49.09,25.11,48.89,25.51z"/>
		<path class="st0" d="M11.04,16.05C4.95,16.05,0,20.4,0,27.46c0,6.5,4.55,11.24,11,11.24c4.3,0,7.02-1.91,7.02-3.21
			c0-0.69-0.37-1.7-0.73-2.23c-1.54,0.81-3.29,1.18-5.2,1.18c-3.49,0-6.05-1.7-6.58-5.11h10.47c1.75,0,2.64-0.45,3.29-1.71
			c0.49-0.93,0.77-2.23,0.77-3.53C20.05,19.5,16.52,16.05,11.04,16.05z M14.53,25.51H5.52c0.41-3.25,2.44-5.2,5.4-5.2
			c2.48,0,3.9,1.46,3.9,3.77C14.82,24.62,14.73,25.11,14.53,25.51z"/>
		<path class="st0" d="M67.89,34.32c-1.99,0-3.33-0.93-3.33-3.37V20.88h7.02v-2.96c0-0.97-0.37-1.38-1.1-1.38h-5.93v-5.28
			c0-0.81-0.53-1.22-1.58-1.22c-1.42,0-2.68,0.16-3.86,0.49v6.01h-3.33c-0.2,0.85-0.32,1.95-0.32,2.92c0,0.97,0.41,1.42,1.18,1.42
			h2.48v9.78c0,5.24,2.92,8.04,7.27,8.04c3.33,0,5.32-1.54,5.32-2.76c0-0.73-0.32-1.7-0.73-2.19
			C70.16,34.12,68.94,34.32,67.89,34.32z"/>
		<path class="st0" d="M86.89,16.14c-2.72,0-4.99,1.46-6.17,3.49v-2.15c0-0.81-0.49-1.22-1.54-1.22c-1.42,0-2.68,0.16-3.86,0.49
			v20.42c0,0.73,0.41,1.06,1.38,1.06h4.02v-13.4c0.65-2.84,2.31-4.38,4.75-4.38c1.14,0,2.39,0.28,3.37,1.02
			c1.22-0.73,2.52-2.03,2.52-3.13C91.35,16.66,89,16.14,86.89,16.14z"/>
	</g>
	<g>
		<path class="st0" d="M152.5,34.24c-0.93,0-1.34-0.57-1.34-1.95v-8.16c0-5.72-2.92-8.08-6.98-8.08c-2.52,0-4.99,1.26-6.74,3.08
			c-1.26-2.11-3.33-3-5.72-3c-2.07,0-4.26,0.93-5.76,2.72v-1.34c0-0.81-0.49-1.26-1.58-1.26c-1.42,0-2.68,0.2-3.86,0.49v20.38
			c0,0.73,0.41,1.1,1.38,1.1h4.06V22.31c1.18-1.26,2.68-1.83,4.18-1.83c1.74,0,3,1.01,3,3.33v13.31c0,0.73,0.41,1.1,1.38,1.1h4.02
			V24.17c0-0.65-0.04-1.3-0.12-1.91c1.22-1.14,2.68-1.79,4.26-1.79c1.79,0,3.04,0.97,3.04,3.33v9.21c0,4.18,2.23,5.48,4.55,5.48
			c2.44,0,3.53-1.42,3.53-2.56c0-0.57-0.08-1.14-0.28-1.7H152.5z"/>
		<path class="st0" d="M163.14,34.28c-0.89,0-1.34-0.57-1.34-1.95V17.48c0-0.81-0.49-1.22-1.54-1.22c-1.42,0-2.68,0.16-3.86,0.49
			v16.28c0,4.18,2.23,5.48,4.55,5.48c2.15,0,3.53-1.26,3.53-2.4c0-0.65-0.12-1.26-0.28-1.83H163.14z"/>
		<path class="st0" d="M159.08,13.86c1.79,0,3-1.01,3-2.84c0-1.83-1.5-2.96-3.08-2.96c-1.71,0-2.96,1.06-2.96,2.84
			C156.04,12.77,157.5,13.86,159.08,13.86z"/>
		<path class="st0" d="M188.72,34.28c-0.93,0-1.46-0.49-1.46-1.95V9.72c0-0.73-0.41-1.14-1.38-1.14h-4.02v9.5
			c-1.38-1.3-3.29-2.03-5.4-2.03c-5.48,0-10.51,4.67-10.51,12.22c0,6.45,4.06,10.43,9.17,10.43c2.76,0,5.4-1.34,6.94-3.98
			c0.61,2.64,2.52,3.77,4.3,3.77c2.19,0,3.53-1.3,3.53-2.39c0-0.69-0.08-1.26-0.28-1.83H188.72z M181.86,29.9
			c-1.1,3.04-3.17,4.47-5.36,4.47c-3.25,0-5.07-2.35-5.07-6.25c0-4.47,2.64-7.63,6.29-7.63c1.58,0,3,0.41,4.14,1.42V29.9z"/>
		<path class="st0" d="M199.16,34.28c-0.89,0-1.34-0.57-1.34-1.95V17.48c0-0.81-0.49-1.22-1.54-1.22c-1.42,0-2.68,0.16-3.86,0.49
			v16.28c0,4.18,2.23,5.48,4.55,5.48c2.15,0,3.53-1.26,3.53-2.4c0-0.65-0.12-1.26-0.28-1.83H199.16z"/>
		<path class="st0" d="M195.1,13.86c1.79,0,3-1.01,3-2.84c0-1.83-1.5-2.96-3.09-2.96c-1.7,0-2.96,1.06-2.96,2.84
			C192.06,12.77,193.52,13.86,195.1,13.86z"/>
		<path class="st0" d="M223.2,34.28h-0.93c-0.93,0-1.46-0.49-1.46-1.99v-7.51c0-5.8-3.37-8.73-9.34-8.73
			c-4.38,0-7.75,1.91-7.75,3.33c0,0.69,0.24,1.58,0.65,2.15c1.75-0.85,3.69-1.26,5.6-1.26c3.78,0,5.44,1.5,5.44,4.1v1.34
			c-1.1-0.57-3.13-0.97-4.87-0.97c-5.2,0-8.61,2.64-8.61,7.06c0,4.02,3,6.9,7.43,6.9c2.8,0,5.11-1.3,6.45-3.41
			c0.69,2.23,2.44,3.21,4.14,3.21c2.15,0,3.53-1.3,3.53-2.4C223.48,35.42,223.36,34.85,223.2,34.28z M215.4,31.48
			c-0.85,1.95-2.8,3-4.67,3c-1.91,0-3.41-0.93-3.41-2.84c0-1.91,1.54-3.04,4.26-3.04c1.18,0,2.96,0.16,3.82,0.49V31.48z"/>
	</g>
	<g>
		<defs>
			<path id="SVGID_1_" d="M117.98,30.66c0.98-4.4-0.15-9.21-3.41-12.72c-0.25-0.27-0.51-0.52-0.78-0.77
				c-0.05-0.05-0.1-0.09-0.15-0.14c-0.09-0.08-0.19-0.17-0.29-0.25c-0.11-0.09-0.22-0.18-0.33-0.27c-0.05-0.04-0.1-0.08-0.15-0.11
				c-2.25-1.75-4.89-2.68-7.55-2.79c-0.05,0-0.1,0-0.15-0.01c-0.08,0-0.17-0.01-0.25-0.01c-0.06,0-0.11,0-0.17,0
				c-0.06,0-0.11,0-0.17,0c-0.08,0-0.17,0.01-0.25,0.01c-0.05,0-0.1,0-0.14,0c-3.22,0.13-6.4,1.44-8.9,3.95
				c-5.28,5.33-5.49,14.21-0.38,19.72l7.44,7.57c0.41,0.44,0.94,0.71,1.5,0.83c0.28,0.07,0.58,0.1,0.9,0.1
				c0.33,0,0.64-0.04,0.92-0.11c0.55-0.12,1.07-0.39,1.47-0.82l7.42-7.57C116.35,35.38,117.48,33.08,117.98,30.66z M104.77,35.38
				c-4.54,0-8.23-3.68-8.23-8.22c0-4.54,3.68-8.23,8.23-8.23c4.54,0,8.23,3.68,8.23,8.23C113,31.7,109.32,35.38,104.77,35.38z"/>
		</defs>
		<use xlink:href="#SVGID_1_"  style="overflow:visible;fill:#FFFFFF;"/>
		<clipPath id="SVGID_2_">
			<use xlink:href="#SVGID_1_"  style="overflow:visible;"/>
		</clipPath>
		<path class="st1" d="M94.82,11.41c0.5,0.99,15.59,18.73,15.59,18.73l10.24,0.96l6.59-7.19l2.21-10.86l-1.64-9.36L121.9,0"/>
		<path class="st1" d="M83.79,35.78c-5.17-4.79-6.88-13.31-3.37-19.55c0.96-1.7,2.26-3.24,3.9-4.31c3.31-2.14,7.66-2.11,11.36-0.77
			c3.7,1.34,6.87,3.82,9.85,6.4c1.72,1.48,3.39,3.01,5.03,4.59c-3.02,0-6.02,0.25-8.98,0.88c-6.8,1.46-13.39,5.19-16.97,11.18
			C84.32,34.71,84.04,35.24,83.79,35.78"/>
		<path class="st1" d="M86.76,51.4c-4.36-4.67-5.67-9.8-2.97-15.62c0.9,0.84,1.9,1.56,3,2.14c6.33,3.33,14.1,1.94,20.79-0.63
			c4.16-1.6,8.11-3.58,11.99-5.62c1.64,1.9,3.22,3.85,4.74,5.84c-0.32,0.5-0.63,0.99-0.95,1.49c-4.22,6.56-8.18,10.8-15.03,14.47
			C101.48,57.13,92.08,57.09,86.76,51.4"/>
		<path class="st1" d="M83.79,35.78c0.24-0.54,0.52-1.06,0.82-1.57c3.58-6,10.16-9.73,16.97-11.18c2.95-0.63,5.95-0.88,8.98-0.88
			c3.16,3.02,6.16,6.2,9.01,9.52c-3.88,2.04-7.83,4.03-11.99,5.62c-6.68,2.57-14.46,3.96-20.79,0.63
			C85.69,37.33,84.69,36.61,83.79,35.78"/>
		<path class="st1" d="M110.56,22.14c3.93,0,7.89,0.43,11.79,0.98l10.34,1.84c-4.42,2-8.72,4.39-13.11,6.7
			C116.72,28.34,113.71,25.16,110.56,22.14"/>
	</g>
	<g>
		<path class="st0" d="M112.5,63.63h-2.08c-0.39,0-0.66-0.14-0.83-0.44l-1.65-2.88c-0.08-0.12-0.16-0.21-0.26-0.27
			c-0.1-0.06-0.23-0.08-0.41-0.08h-0.58v3.66h-2.3v-9.9h3.22c0.72,0,1.33,0.07,1.83,0.22c0.51,0.15,0.92,0.35,1.24,0.62
			c0.32,0.26,0.55,0.57,0.7,0.93c0.14,0.36,0.22,0.75,0.22,1.17c0,0.32-0.04,0.63-0.13,0.91c-0.09,0.29-0.21,0.55-0.38,0.79
			c-0.17,0.24-0.38,0.46-0.62,0.65c-0.25,0.19-0.53,0.35-0.85,0.47c0.15,0.08,0.29,0.17,0.42,0.29c0.13,0.12,0.25,0.25,0.35,0.41
			L112.5,63.63z M107.62,58.38c0.31,0,0.58-0.04,0.8-0.12c0.22-0.08,0.4-0.19,0.54-0.33c0.14-0.14,0.24-0.3,0.31-0.49
			c0.06-0.19,0.1-0.39,0.1-0.61c0-0.44-0.14-0.77-0.42-1.02c-0.28-0.24-0.72-0.37-1.32-0.37h-0.92v2.94H107.62z"/>
		<path class="st0" d="M118.64,55.49v2.31h3.11v1.7h-3.11v2.36h4.07v1.77h-6.38v-9.9h6.38v1.77H118.64z"/>
		<path class="st0" d="M135.99,63.63h-1.78c-0.2,0-0.36-0.05-0.48-0.14c-0.12-0.09-0.22-0.21-0.28-0.36l-0.58-1.73h-3.77l-0.58,1.73
			c-0.05,0.13-0.14,0.24-0.27,0.34s-0.29,0.15-0.48,0.15h-1.79l3.83-9.9h2.35L135.99,63.63z M132.34,59.84l-0.92-2.71
			c-0.07-0.17-0.14-0.37-0.22-0.61c-0.08-0.23-0.15-0.49-0.23-0.76c-0.07,0.28-0.14,0.53-0.22,0.77c-0.08,0.24-0.15,0.44-0.22,0.61
			l-0.91,2.7H132.34z"/>
		<path class="st0" d="M145.73,61.8v1.84h-5.97v-9.9h2.3v8.07H145.73z"/>
		<path class="st0" d="M106.71,79.53h-2.31v-9.9h2.31V79.53z"/>
		<path class="st0" d="M120.26,69.63v9.9h-1.2c-0.18,0-0.33-0.03-0.45-0.08c-0.12-0.06-0.24-0.16-0.36-0.3l-4.67-5.91
			c0.02,0.18,0.03,0.35,0.04,0.51c0.01,0.17,0.01,0.32,0.01,0.47v5.31h-2.03v-9.9h1.21c0.1,0,0.18,0,0.25,0.01
			c0.07,0.01,0.13,0.03,0.18,0.05c0.05,0.02,0.11,0.06,0.16,0.11c0.05,0.05,0.11,0.11,0.17,0.18l4.71,5.95
			c-0.02-0.19-0.04-0.37-0.05-0.55c-0.01-0.18-0.01-0.35-0.01-0.51v-5.24H120.26z"/>
		<path class="st0" d="M127.48,71.4v2.51h3.39v1.77h-3.39v3.85h-2.31v-9.9h6.38v1.77H127.48z"/>
		<path class="st0" d="M141.83,77.7v1.84h-5.97v-9.9h2.3v8.07H141.83z"/>
		<path class="st0" d="M150.13,77.72c0.31,0,0.58-0.05,0.83-0.15c0.24-0.1,0.45-0.25,0.62-0.44c0.17-0.19,0.3-0.42,0.38-0.7
			c0.09-0.27,0.13-0.59,0.13-0.93v-5.87h2.3v5.87c0,0.61-0.1,1.16-0.3,1.67c-0.2,0.51-0.48,0.94-0.85,1.31
			c-0.37,0.37-0.81,0.65-1.34,0.86c-0.53,0.2-1.12,0.31-1.77,0.31c-0.66,0-1.26-0.1-1.78-0.31c-0.53-0.2-0.97-0.49-1.34-0.86
			c-0.37-0.37-0.65-0.8-0.84-1.31c-0.19-0.51-0.29-1.06-0.29-1.67v-5.87h2.3v5.86c0,0.35,0.04,0.66,0.13,0.93
			c0.09,0.27,0.22,0.51,0.38,0.7c0.17,0.19,0.37,0.34,0.62,0.44C149.54,77.67,149.82,77.72,150.13,77.72z"/>
		<path class="st0" d="M161.48,71.4v2.31h3.11v1.7h-3.11v2.36h4.07v1.77h-6.38v-9.9h6.38v1.77H161.48z"/>
		<path class="st0" d="M178.59,69.63v9.9h-1.2c-0.18,0-0.33-0.03-0.45-0.08c-0.12-0.06-0.24-0.16-0.36-0.3l-4.67-5.91
			c0.02,0.18,0.03,0.35,0.04,0.51c0.01,0.17,0.01,0.32,0.01,0.47v5.31h-2.03v-9.9h1.21c0.1,0,0.18,0,0.25,0.01
			c0.07,0.01,0.13,0.03,0.18,0.05c0.05,0.02,0.11,0.06,0.16,0.11c0.05,0.05,0.11,0.11,0.17,0.18l4.71,5.95
			c-0.02-0.19-0.04-0.37-0.05-0.55c-0.01-0.18-0.01-0.35-0.01-0.51v-5.24H178.59z"/>
		<path class="st0" d="M190.18,76.97c0.05,0,0.11,0.01,0.16,0.03c0.05,0.02,0.11,0.06,0.16,0.11l0.91,0.96
			c-0.4,0.52-0.9,0.91-1.5,1.18c-0.6,0.27-1.31,0.4-2.13,0.4c-0.75,0-1.43-0.13-2.02-0.38c-0.6-0.26-1.1-0.61-1.52-1.06
			c-0.41-0.45-0.73-0.99-0.96-1.6c-0.22-0.62-0.33-1.29-0.33-2.02c0-0.74,0.12-1.42,0.36-2.04c0.24-0.62,0.58-1.15,1.01-1.6
			c0.44-0.45,0.96-0.8,1.56-1.05c0.61-0.25,1.28-0.37,2.01-0.37c0.37,0,0.72,0.03,1.05,0.1c0.33,0.07,0.64,0.16,0.92,0.27
			c0.29,0.12,0.55,0.25,0.79,0.42c0.24,0.16,0.45,0.34,0.64,0.53l-0.77,1.04c-0.05,0.06-0.11,0.12-0.18,0.17
			c-0.07,0.05-0.16,0.08-0.29,0.08c-0.08,0-0.16-0.02-0.23-0.05c-0.07-0.04-0.15-0.08-0.23-0.13c-0.08-0.05-0.17-0.11-0.27-0.17
			c-0.1-0.06-0.21-0.12-0.35-0.17c-0.13-0.05-0.29-0.1-0.47-0.13c-0.18-0.04-0.39-0.05-0.63-0.05c-0.38,0-0.73,0.07-1.04,0.21
			c-0.32,0.14-0.59,0.35-0.82,0.62c-0.23,0.27-0.41,0.6-0.53,0.99c-0.12,0.39-0.19,0.84-0.19,1.34c0,0.51,0.07,0.96,0.21,1.35
			c0.14,0.39,0.33,0.73,0.56,1c0.24,0.27,0.52,0.47,0.83,0.62c0.32,0.14,0.66,0.21,1.02,0.21c0.21,0,0.4-0.01,0.57-0.03
			c0.17-0.02,0.33-0.05,0.48-0.1c0.15-0.05,0.29-0.11,0.42-0.19c0.13-0.08,0.27-0.18,0.4-0.3c0.05-0.05,0.11-0.08,0.18-0.11
			C190.04,76.98,190.11,76.97,190.18,76.97z"/>
		<path class="st0" d="M197.72,71.4v2.31h3.11v1.7h-3.11v2.36h4.07v1.77h-6.38v-9.9h6.38v1.77H197.72z"/>
		<path class="st0" d="M214.29,79.53h-2.08c-0.39,0-0.66-0.14-0.83-0.44l-1.65-2.88c-0.08-0.12-0.16-0.21-0.26-0.27
			c-0.1-0.06-0.23-0.08-0.41-0.08h-0.58v3.66h-2.3v-9.9h3.22c0.72,0,1.33,0.07,1.83,0.22c0.51,0.15,0.92,0.35,1.24,0.62
			c0.32,0.26,0.55,0.57,0.7,0.93c0.14,0.36,0.22,0.75,0.22,1.17c0,0.32-0.04,0.63-0.13,0.91c-0.09,0.29-0.21,0.55-0.38,0.79
			c-0.17,0.24-0.38,0.46-0.62,0.65c-0.25,0.19-0.53,0.35-0.85,0.47c0.15,0.08,0.29,0.17,0.42,0.29c0.13,0.12,0.25,0.25,0.35,0.41
			L214.29,79.53z M209.41,74.28c0.31,0,0.58-0.04,0.8-0.12c0.22-0.08,0.4-0.19,0.54-0.33c0.14-0.14,0.24-0.3,0.31-0.49
			c0.06-0.19,0.1-0.39,0.1-0.61c0-0.44-0.14-0.77-0.42-1.02c-0.28-0.24-0.72-0.37-1.32-0.37h-0.92v2.94H209.41z"/>
		<path class="st0" d="M223.59,71.64c-0.07,0.11-0.14,0.19-0.21,0.24c-0.07,0.05-0.17,0.08-0.29,0.08c-0.1,0-0.22-0.03-0.34-0.1
			c-0.12-0.07-0.26-0.14-0.41-0.22c-0.15-0.08-0.33-0.16-0.52-0.22c-0.19-0.07-0.42-0.1-0.67-0.1c-0.43,0-0.75,0.09-0.96,0.28
			c-0.21,0.18-0.32,0.43-0.32,0.74c0,0.2,0.06,0.36,0.19,0.5c0.13,0.13,0.29,0.24,0.5,0.34c0.21,0.1,0.44,0.18,0.71,0.26
			c0.27,0.08,0.54,0.17,0.81,0.27c0.28,0.1,0.55,0.21,0.81,0.34c0.27,0.13,0.5,0.3,0.71,0.5c0.21,0.2,0.37,0.45,0.5,0.74
			c0.13,0.29,0.19,0.64,0.19,1.06c0,0.46-0.08,0.89-0.24,1.28c-0.16,0.4-0.39,0.75-0.69,1.04c-0.3,0.3-0.67,0.53-1.11,0.7
			c-0.44,0.17-0.94,0.25-1.51,0.25c-0.31,0-0.62-0.03-0.94-0.1c-0.32-0.06-0.63-0.15-0.93-0.27c-0.3-0.12-0.58-0.25-0.84-0.41
			c-0.26-0.16-0.49-0.34-0.69-0.53l0.68-1.07c0.05-0.08,0.13-0.14,0.21-0.19c0.09-0.05,0.18-0.08,0.29-0.08
			c0.14,0,0.27,0.04,0.41,0.13c0.14,0.09,0.29,0.18,0.47,0.29c0.17,0.1,0.37,0.2,0.6,0.29c0.23,0.09,0.49,0.13,0.8,0.13
			c0.42,0,0.74-0.09,0.97-0.28c0.23-0.18,0.35-0.47,0.35-0.87c0-0.23-0.06-0.42-0.19-0.56c-0.13-0.14-0.29-0.27-0.5-0.36
			c-0.21-0.1-0.44-0.18-0.7-0.25c-0.26-0.07-0.53-0.15-0.81-0.24c-0.28-0.09-0.55-0.2-0.81-0.33c-0.26-0.13-0.5-0.3-0.7-0.51
			c-0.21-0.21-0.37-0.47-0.5-0.79c-0.13-0.31-0.19-0.7-0.19-1.17c0-0.37,0.07-0.73,0.22-1.09c0.15-0.35,0.37-0.67,0.66-0.94
			c0.29-0.28,0.65-0.5,1.07-0.66c0.42-0.17,0.9-0.25,1.45-0.25c0.3,0,0.6,0.02,0.89,0.07c0.29,0.05,0.56,0.12,0.82,0.21
			c0.26,0.09,0.5,0.2,0.72,0.33c0.22,0.13,0.42,0.28,0.6,0.44L223.59,71.64z"/>
	</g>
</g>
</svg>
