<?xml version="1.0" encoding="utf-8"?>
<!-- Generator: Adobe Illustrator 23.0.1, SVG Export Plug-In . SVG Version: 6.00 Build 0)  -->
<svg version="1.1" id="Camada_1" xmlns="http://www.w3.org/2000/svg" xmlns:xlink="http://www.w3.org/1999/xlink" x="0px" y="0px"
	 viewBox="0 0 30 30" style="enable-background:new 0 0 30 30;" xml:space="preserve">
<style type="text/css">
	.st0{fill:#FFFFFF;}
</style>
<g>
	<g>
		<g>
			<path class="st0" d="M16.98,23.87c0.47,0,0.82,0,1.17,0c0-3.41,0-7.52,0-10.92c-0.47,0-0.82,0-1.17,0
				C16.98,16.35,16.98,20.46,16.98,23.87z M13.02,23.87c0-3.41,0-7.52,0-10.92c-0.35,0-0.82,0-1.17,0c0,3.41,0,7.52,0,10.92
				C12.2,23.87,12.55,23.87,13.02,23.87z M14.42,12.94c0,3.64,0,7.28,0,10.92c0.47,0,0.82,0,1.17,0c0-3.64,0-7.28,0-10.92
				C15.23,12.94,14.88,12.94,14.42,12.94z M23.39,23.87c0-3.41,0-7.52,0-10.92c-0.35,0-0.82,0-1.17,0c0,3.41,0,7.52,0,10.92
				C22.69,23.87,23.05,23.87,23.39,23.87z M7.77,23.87c0-3.41,0-7.52,0-10.92c-0.47,0-0.82,0-1.17,0c0,3.41,0,7.52,0,10.92
				C7.07,23.87,7.42,23.87,7.77,23.87z M19.66,12.94c0,3.64,0,7.28,0,10.92c0.47,0,0.82,0,1.17,0c0-3.64,0-7.28,0-10.92
				C20.36,12.94,20.01,12.94,19.66,12.94z M9.17,12.94c0,3.64,0,7.28,0,10.92c0.47,0,0.82,0,1.17,0c0-3.64,0-7.28,0-10.92
				C9.99,12.94,9.64,12.94,9.17,12.94z M15,4.13c-3.26,2.47-6.41,4.82-9.79,7.28c6.53,0,12.94,0,19.59,0
				C21.53,8.95,18.26,6.6,15,4.13z M5.21,12.83c-0.23,0-0.35,0-0.58,0c-0.58,0-0.93-0.35-1.17-0.82c-0.12-0.47,0-0.94,0.35-1.29
				C4.74,10.01,5.67,9.3,6.49,8.6c2.57-1.88,5.13-3.88,7.7-5.76c0.58-0.47,0.7-0.47,1.28,0c3.38,2.58,6.76,5.05,10.14,7.64
				c0.7,0.47,0.82,0.94,0.7,1.53c-0.23,0.59-0.58,0.82-1.4,0.82c-0.12,0-0.12,0-0.23,0c0,3.64,0,7.28,0,10.92
				c0.7,0.12,1.05,0.35,1.05,0.82c0,0.47-0.35,0.59-1.17,0.59c-6.53,0-13.06,0-19.59,0c-0.12,0-0.23,0-0.23,0
				c-0.47,0-0.82-0.23-0.82-0.7c0-0.35,0.23-0.59,0.82-0.7c0.12,0,0.12,0,0.23,0C5.21,20.23,5.21,16.59,5.21,12.83z"/>
		</g>
		<g>
			<path class="st0" d="M15,27.39c-3.73,0-7.35,0-11.08,0c-0.23,0-0.35,0-0.58,0c-0.23,0-0.47-0.23-0.47-0.7
				c0-0.35,0.23-0.59,0.58-0.59c0.12,0,0.35,0,0.47,0c7.35,0,14.81,0,22.15,0c0.82,0,1.05,0.24,1.05,0.7c0,0.47-0.35,0.7-1.05,0.7
				C22.35,27.39,18.73,27.39,15,27.39z"/>
		</g>
	</g>
</g>
</svg>
