<?xml version="1.0" encoding="utf-8"?>
<!-- Generator: Adobe Illustrator 23.0.1, SVG Export Plug-In . SVG Version: 6.00 Build 0)  -->
<svg version="1.1" id="_ÎÓÈ_1" xmlns="http://www.w3.org/2000/svg" xmlns:xlink="http://www.w3.org/1999/xlink" x="0px" y="0px"
	 viewBox="0 0 66.86 63.92" style="enable-background:new 0 0 66.86 63.92;" xml:space="preserve">
<style type="text/css">
	.st0{fill:#EF4863;}
</style>
<title>ICONE_GALEAO</title>
<path class="st0" d="M57.14,58.58c-0.39,0-0.71-0.32-0.71-0.71c0-0.18,0.07-0.35,0.19-0.48c4.03-4.4,6.8-9.81,8-15.65
	c2.43-10.74-0.56-21.98-8-30.09c-0.54-0.58-1.14-1.17-1.84-1.81l-0.35-0.33l-0.67-0.58c-0.26-0.22-0.52-0.44-0.78-0.64l-0.34-0.27
	C47.53,4,41.28,1.7,34.78,1.44h-2.69c-7.93,0.34-15.43,3.67-21,9.33c-12.57,12.69-13,33.6-0.9,46.62c0.28,0.28,0.28,0.72,0,1
	s-0.72,0.28-1,0c-12.6-13.61-12.18-35.4,0.9-48.61c5.83-5.93,13.69-9.41,22-9.74h0.25h0.35h1.59h0.34h0.28
	c6.76,0.28,13.26,2.69,18.57,6.87c0.12,0.09,0.24,0.18,0.36,0.28l0.81,0.66l0.7,0.61l0.38,0.36c0.71,0.65,1.33,1.27,1.9,1.88
	c7.78,8.43,10.91,20.14,8.39,31.33c-1.26,6.1-4.15,11.74-8.36,16.32C57.52,58.49,57.33,58.58,57.14,58.58z"/>
<path class="st0" d="M24.67,60.21c-0.33,0-0.65-0.11-0.92-0.31c-0.37-0.29-0.59-0.73-0.59-1.2v-0.48c0-1.87,0-3.35,1.92-5l3.93-3.35
	c-0.46-3.23-0.74-6.49-0.82-9.75v-3.46h-5l-13.17,3.53c-0.47,0.13-0.98,0.03-1.37-0.27c-0.36-0.28-0.57-0.72-0.56-1.18v-0.17
	c0-2.57,0-3.74,2.74-5.34l8.6-5v-4.85c0-1.27,1.03-2.3,2.3-2.3h2.56c1.27,0,2.3,1.03,2.3,2.3V24l1.6-0.93v-6.05
	c-0.03-1.9,0.38-3.78,1.18-5.5c1.19-2.46,3.13-3.76,4.07-3.76s2.89,1.3,4.08,3.76c0.8,1.72,1.21,3.6,1.18,5.5v6l1.31,0.77v-0.41
	c0-1.27,1.03-2.3,2.3-2.31h2.58c1.27,0.01,2.3,1.04,2.3,2.31v4.65l8.9,5.19c2.76,1.61,2.76,2.68,2.75,5.26v0.26
	c0,0.83-0.67,1.51-1.51,1.51c-0.13,0-0.26-0.02-0.39-0.05L43.7,36.66h-5v3.44c-0.09,3.26-0.36,6.52-0.82,9.75l3.93,3.36
	c1.93,1.65,1.93,3.09,1.93,4.93v0.56c0,0.47-0.22,0.91-0.59,1.19c-0.37,0.29-0.86,0.39-1.32,0.27l-7-1.88
	c-0.37-0.1-0.6-0.48-0.5-0.86c0.1-0.37,0.48-0.6,0.85-0.5c0,0,0,0,0.01,0l7,1.88c0.03,0.02,0.07,0.02,0.1,0
	c0.01-0.02,0.01-0.05,0-0.07v-0.56c0-1.75,0-2.63-1.45-3.86l-4.22-3.61c-0.18-0.15-0.27-0.39-0.24-0.62c0.48-3.31,0.77-6.65,0.86-10
	v-4.12c0-0.39,0.32-0.71,0.71-0.71h5.84c0.06-0.01,0.12-0.01,0.18,0l13.31,3.56c0.03,0.01,0.05,0.01,0.08,0
	c0.01-0.03,0.01-0.05,0-0.08v-0.25c0-2.46,0-2.84-2.06-4.05l-9.21-5.39c-0.22-0.13-0.35-0.36-0.35-0.61v-5
	c-0.01-0.49-0.4-0.89-0.89-0.9h-2.54c-0.49,0.01-0.89,0.41-0.9,0.9v1.67c0,0.25-0.13,0.49-0.35,0.62c-0.22,0.12-0.49,0.12-0.71,0
	l-2.71-1.64c-0.22-0.13-0.35-0.36-0.35-0.61v-6.45c0.04-1.68-0.3-3.36-1-4.89c-0.52-1.32-1.53-2.4-2.82-3
	c-1.27,0.62-2.26,1.69-2.79,3c-0.7,1.53-1.04,3.21-1,4.89v6.45c0,0.25-0.13,0.48-0.35,0.61l-3,1.76c-0.22,0.13-0.48,0.13-0.7,0
	c-0.22-0.12-0.36-0.36-0.36-0.61v-1.85c0.01-0.49-0.39-0.89-0.88-0.9c0,0-0.01,0-0.01,0h-2.67c-0.5,0-0.9,0.4-0.9,0.9v5.23
	c0,0.25-0.13,0.48-0.35,0.6l-8.94,5.23c-2,1.2-2,1.64-2,4.13v0.17c0,0,0,0,0,0.07c0.05,0.02,0.1,0.02,0.15,0l13.25-3.53
	c0.06-0.01,0.11-0.01,0.17,0h5.8c0.18,0,0.36,0.08,0.49,0.21c0.14,0.13,0.21,0.31,0.21,0.5v4.14c0.08,3.3,0.37,6.59,0.84,9.86v0.09
	c0.03,0.24-0.07,0.47-0.25,0.63L26,54.28c-1.46,1.24-1.45,2.14-1.44,3.93v0.49c-0.01,0.03-0.01,0.05,0,0.08
	c0.03,0.01,0.07,0.01,0.1,0l4.86-1.3c0.38-0.1,0.76,0.12,0.86,0.5s-0.12,0.76-0.5,0.86l-4.79,1.32
	C24.95,60.2,24.81,60.22,24.67,60.21z M31.67,17.44H31.5c-0.19-0.05-0.36-0.18-0.45-0.36l-0.96-1.8c-0.16-0.32-0.06-0.7,0.23-0.9
	c1.91-1.12,4.28-1.12,6.19,0c0.29,0.2,0.38,0.59,0.22,0.9l-0.93,1.79c-0.09,0.18-0.26,0.31-0.45,0.36c-0.2,0.05-0.41,0.01-0.57-0.11
	c-0.85-0.39-1.83-0.41-2.69-0.04C31.98,17.38,31.83,17.44,31.67,17.44L31.67,17.44z M31.67,15.24l0.31,0.58
	c0.94-0.27,1.95-0.27,2.89,0l0.3-0.58c-1.13-0.39-2.36-0.38-3.48,0.04L31.67,15.24z"/>
<path class="st0" d="M33.44,63.92c-1.1,0-2-0.9-2-2v-8.23c0-1.1,0.9-2,2-2s2,0.9,2,2v8.25C35.43,63.04,34.54,63.92,33.44,63.92z
	 M33.44,53.1c-0.32,0.01-0.58,0.27-0.58,0.59v8.25c0,0.32,0.26,0.58,0.58,0.58c0.32,0,0.58-0.26,0.58-0.58v-8.25
	C34.02,53.37,33.76,53.11,33.44,53.1z"/>
</svg>
