<?xml version="1.0" encoding="utf-8"?>
<!-- Generator: Adobe Illustrator 23.0.1, SVG Export Plug-In . SVG Version: 6.00 Build 0)  -->
<svg version="1.1" id="Camada_1" xmlns="http://www.w3.org/2000/svg" xmlns:xlink="http://www.w3.org/1999/xlink" x="0px" y="0px"
	 viewBox="0 0 185.25 31.27" style="enable-background:new 0 0 185.25 31.27;" xml:space="preserve">
<style type="text/css">
	.st0{fill:#FFFFFF;}
</style>
<g>
	<path id="a_6_" class="st0" d="M178.56,19.42c-0.71,1.61-2.32,2.49-3.87,2.49c-1.58,0-2.83-0.77-2.83-2.36
		c0-1.58,1.28-2.52,3.53-2.52c0.98,0,2.46,0.14,3.16,0.4V19.42z M185.02,21.74h-0.77c-0.77,0-1.21-0.4-1.21-1.65v-6.23
		c0-4.81-2.79-7.23-7.74-7.23c-3.63,0-6.43,1.58-6.43,2.76c0,0.57,0.2,1.31,0.54,1.78c1.45-0.71,3.06-1.04,4.64-1.04
		c3.13,0,4.51,1.24,4.51,3.4v1.11c-0.91-0.47-2.59-0.81-4.04-0.81c-4.31,0-7.13,2.19-7.13,5.85c0,3.33,2.49,5.72,6.16,5.72
		c2.32,0,4.24-1.08,5.35-2.83c0.57,1.85,2.02,2.66,3.43,2.66c1.78,0,2.93-1.08,2.93-1.99C185.25,22.68,185.15,22.21,185.02,21.74"/>
	<path id="i_12_" class="st0" d="M165.97,21.74c0.13,0.47,0.24,0.98,0.24,1.51c0,0.94-1.14,1.99-2.93,1.99
		c-1.92,0-3.77-1.08-3.77-4.54V7.2c0.98-0.27,2.02-0.4,3.2-0.4c0.87,0,1.28,0.34,1.28,1.01v12.31c0,1.14,0.37,1.62,1.11,1.62H165.97
		z M161.73,4.81c1.48,0,2.49-0.84,2.49-2.36c0-1.51-1.25-2.46-2.56-2.46c-1.41,0-2.46,0.88-2.46,2.36
		C159.2,3.9,160.42,4.81,161.73,4.81"/>
	<path id="d_6_" class="st0" d="M150.75,18.1c-0.91,2.52-2.62,3.7-4.44,3.7c-2.69,0-4.21-1.95-4.21-5.18c0-3.7,2.19-6.33,5.22-6.33
		c1.31,0,2.49,0.34,3.43,1.18V18.1z M156.44,21.74c-0.77,0-1.21-0.4-1.21-1.62V1.38c0-0.61-0.34-0.94-1.14-0.94h-3.33v7.87
		c-1.14-1.08-2.73-1.68-4.48-1.68c-4.54,0-8.71,3.87-8.71,10.13c0,5.35,3.36,8.65,7.6,8.65c2.29,0,4.48-1.11,5.75-3.3
		c0.51,2.19,2.09,3.13,3.57,3.13c1.82,0,2.93-1.08,2.93-1.98c0-0.57-0.07-1.04-0.24-1.51H156.44z"/>
	<path id="i_11_" class="st0" d="M136.35,23.25c0,0.94-1.14,1.99-2.93,1.99c-1.92,0-3.77-1.08-3.77-4.54V7.2
		c0.98-0.27,2.02-0.4,3.2-0.4c0.87,0,1.28,0.34,1.28,1.01v12.31c0,1.14,0.37,1.62,1.11,1.62h0.87
		C136.25,22.21,136.35,22.71,136.35,23.25z M131.87,4.81c1.48,0,2.49-0.84,2.49-2.36c0-1.51-1.25-2.46-2.56-2.46
		c-1.41,0-2.46,0.88-2.46,2.36C129.35,3.9,130.56,4.81,131.87,4.81z"/>
	<path id="m_6_" class="st0" d="M126.42,21.7c-0.77,0-1.11-0.47-1.11-1.62v-6.76c0-4.74-2.42-6.7-5.79-6.7
		c-2.09,0-4.14,1.04-5.59,2.56c-1.04-1.75-2.76-2.49-4.74-2.49c-1.72,0-3.53,0.77-4.78,2.26V7.84c0-0.67-0.4-1.04-1.31-1.04
		c-1.18,0-2.22,0.17-3.2,0.4v16.89c0,0.61,0.34,0.91,1.14,0.91h3.37V11.81c0.98-1.04,2.22-1.51,3.47-1.51
		c1.45,0,2.49,0.84,2.49,2.76v11.04c0,0.61,0.34,0.91,1.14,0.91h3.33V13.36c0-0.54-0.03-1.08-0.1-1.58
		c1.01-0.94,2.22-1.48,3.53-1.48c1.48,0,2.52,0.81,2.52,2.76v7.64c0,3.47,1.85,4.54,3.77,4.54c2.02,0,2.93-1.18,2.93-2.12
		c0-0.47-0.07-0.94-0.24-1.41H126.42z"/>
	<path class="st0" d="M89.26,9.46c1.2,0.45,2.23,1.23,3,2.23c1.69,0.02,3.38,0.13,5.06,0.3c-0.52-1.38-1.29-2.67-2.34-3.81
		c-0.21-0.22-0.42-0.43-0.64-0.64c-0.04-0.04-0.08-0.08-0.12-0.11c-0.08-0.07-0.16-0.14-0.24-0.21c-0.09-0.08-0.18-0.15-0.27-0.22
		c-0.04-0.03-0.08-0.06-0.12-0.09c-1.86-1.45-4.05-2.22-6.26-2.31c-0.04,0-0.08,0-0.12,0c-0.07,0-0.14-0.01-0.21-0.01
		c-0.01,0-0.01,0-0.02,0c-0.04,0-0.08,0-0.13,0c-0.05,0-0.09,0-0.14,0c-0.07,0-0.14,0.01-0.21,0.01c-0.04,0-0.08,0-0.12,0
		c-0.85,0.03-1.69,0.18-2.51,0.41c1.26,0.88,2.45,1.86,3.61,2.86C88.08,8.4,88.67,8.93,89.26,9.46z"/>
	<path class="st0" d="M89.27,9.46c-0.75-0.29-1.56-0.45-2.42-0.45c-0.96,0-1.87,0.2-2.71,0.57c-1.71,0.74-3.06,2.17-3.7,3.94
		c-1.7,0.64-3.33,1.47-4.83,2.48c0.06-2.97,1.2-5.91,3.38-8.12c0.7-0.7,1.46-1.28,2.27-1.76c0.83-0.49,1.7-0.86,2.6-1.12
		c1.26,0.89,2.45,1.87,3.61,2.86C88.08,8.39,88.67,8.93,89.27,9.46z"/>
	<path class="st0" d="M93.1,13.1c1.65,1.64,3.25,3.33,4.8,5.08c0.36-2.06,0.17-4.2-0.57-6.18c-1.69-0.17-3.38-0.28-5.06-0.3
		C92.59,12.12,92.87,12.59,93.1,13.1z"/>
	<path class="st0" d="M93.1,13.1L93.1,13.1c1.65,1.64,3.25,3.33,4.8,5.08l0,0C96.35,16.43,94.75,14.74,93.1,13.1z"/>
	<path id="r_6_" class="st0" d="M72.03,6.7c-2.25,0-4.14,1.21-5.11,2.89V7.81c0-0.67-0.4-1.01-1.28-1.01c-1.18,0-2.22,0.13-3.2,0.4
		v16.92c0,0.61,0.34,0.88,1.14,0.88h3.33V13.9c0.54-2.36,1.92-3.63,3.94-3.63c0.94,0,1.99,0.24,2.79,0.84
		c1.01-0.61,2.09-1.68,2.09-2.59C75.73,7.13,73.78,6.7,72.03,6.7"/>
	<path id="t_6_" class="st0" d="M56.28,21.77c-1.65,0-2.76-0.77-2.76-2.79v-8.35h5.82V8.18c0-0.81-0.3-1.14-0.91-1.14h-4.91V2.66
		c0-0.67-0.44-1.01-1.31-1.01c-1.18,0-2.22,0.14-3.2,0.4v4.98h-2.76c-0.17,0.71-0.27,1.62-0.27,2.42c0,0.81,0.34,1.18,0.98,1.18
		h2.05v8.11c0,4.34,2.42,6.66,6.02,6.66c2.76,0,4.41-1.28,4.41-2.29c0-0.61-0.27-1.41-0.61-1.82C58.16,21.6,57.15,21.77,56.28,21.77
		"/>
	<path id="e_12_" class="st0" d="M40.52,14.47h-7.47c0.34-2.69,2.02-4.31,4.48-4.31c2.05,0,3.23,1.21,3.23,3.13
		C40.76,13.73,40.69,14.13,40.52,14.47 M37.63,6.63c-5.05,0-9.15,3.6-9.15,9.45c0,5.38,3.77,9.32,9.12,9.32
		c3.57,0,5.82-1.58,5.82-2.66c0-0.57-0.3-1.41-0.61-1.85c-1.28,0.67-2.73,0.98-4.31,0.98c-2.89,0-5.01-1.41-5.45-4.24h8.68
		c1.45,0,2.19-0.37,2.73-1.41c0.4-0.77,0.64-1.85,0.64-2.93C45.1,9.49,42.17,6.63,37.63,6.63"/>
	<path id="l_6_" class="st0" d="M25.24,21.7c-1.21,0-1.88-0.74-1.88-2.42V1.21c0-0.67-0.4-1.01-1.28-1.01c-1.18,0-2.22,0.13-3.2,0.4
		v18.51c0,3.5,1.35,6.13,4.98,6.13c2.46,0,3.87-1.01,3.87-2.09c0-0.61-0.24-1.38-0.54-1.82C26.66,21.57,25.92,21.7,25.24,21.7"/>
	<path id="e_11_" class="st0" d="M12.05,14.47H4.58c0.34-2.69,2.02-4.31,4.48-4.31c2.05,0,3.23,1.21,3.23,3.13
		C12.28,13.73,12.21,14.13,12.05,14.47 M9.15,6.63C4.1,6.63,0,10.23,0,16.08c0,5.38,3.77,9.32,9.12,9.32c3.57,0,5.82-1.58,5.82-2.66
		c0-0.57-0.3-1.41-0.61-1.85c-1.28,0.67-2.73,0.98-4.31,0.98c-2.89,0-5.01-1.41-5.45-4.24h8.68c1.45,0,2.19-0.37,2.73-1.41
		c0.4-0.77,0.64-1.85,0.64-2.93C16.62,9.49,13.7,6.63,9.15,6.63"/>
	<path class="st0" d="M89.18,24.23c-2.62,1.01-5.45,1.79-8.25,2.05c-0.07,0.01-0.14,0.01-0.2,0.02l4.14,4.21
		c0.34,0.37,0.78,0.59,1.24,0.69c0.23,0.05,0.48,0.08,0.75,0.08c0.27,0,0.53-0.03,0.76-0.09c0.46-0.1,0.89-0.32,1.22-0.68l6.15-6.28
		c1.02-1.1,1.77-2.36,2.28-3.7c-2.4,1.23-4.84,2.4-7.37,3.41C89.66,24.03,89.42,24.13,89.18,24.23z"/>
	<path class="st0" d="M97.89,18.17c-0.04,0.19-0.05,0.37-0.09,0.56c-0.01,0.05-0.03,0.1-0.04,0.16c-0.13,0.56-0.29,1.1-0.5,1.64
		c-2.39,1.23-4.84,2.39-7.37,3.41c-0.24,0.1-0.48,0.2-0.72,0.3c-2.62,1-5.44,1.79-8.25,2.05c-0.07,0.01-0.14,0.01-0.21,0.02
		l-2.03-2.07c-2.11-2.28-3.13-5.27-3.07-8.23c1.5-1.01,3.12-1.84,4.83-2.48c-0.26,0.72-0.41,1.5-0.41,2.31
		c0,3.76,3.05,6.82,6.81,6.82c2.83,0,5.27-1.73,6.29-4.19c0.34-0.81,0.53-1.7,0.53-2.63c0-0.97-0.21-1.9-0.57-2.73
		C94.75,14.74,96.35,16.43,97.89,18.17z"/>
</g>
</svg>
